<svg xmlns="http://www.w3.org/2000/svg" width="500" height="500" viewBox="0 0 500 500" version="1.1"><path d="M 197.241 246.750 C 197.482 301.500, 197.482 301.500, 197.750 247.250 C 198.017 193, 198.017 193, 208.500 193 C 218.983 193, 218.983 193, 219.250 247.250 C 219.518 301.500, 219.518 301.500, 219.759 246.750 C 220 192, 220 192, 208.500 192 C 197 192, 197 192, 197.241 246.750 M 228.241 246.750 C 228.482 301.500, 228.482 301.500, 228.750 247.250 C 229.017 193, 229.017 193, 239.500 193 C 249.983 193, 249.983 193, 250.250 247.250 C 250.518 301.500, 250.518 301.500, 250.759 246.750 C 251 192, 251 192, 239.500 192 C 228 192, 228 192, 228.241 246.750 M 88.250 193.746 C 99 194.068, 99 194.068, 99.063 215.284 C 99.098 226.953, 99.436 235.600, 99.813 234.500 C 100.191 233.400, 100.361 223.613, 100.191 212.750 C 99.881 193, 99.881 193, 88.691 193.212 C 77.500 193.425, 77.500 193.425, 88.250 193.746 M 119.183 193.746 C 128.272 194.018, 129.933 194.323, 130.317 195.783 C 130.646 197.035, 130.799 196.890, 130.884 195.250 C 130.998 193.031, 130.843 193.003, 119.750 193.212 C 108.500 193.425, 108.500 193.425, 119.183 193.746 M 326.250 193.739 C 329.413 193.937, 334.587 193.937, 337.750 193.739 C 340.913 193.541, 338.325 193.378, 332 193.378 C 325.675 193.378, 323.087 193.541, 326.250 193.739 M 353 193.750 C 353 194.162, 357.950 194.500, 364 194.500 C 370.050 194.500, 375 194.162, 375 193.750 C 375 193.338, 370.050 193, 364 193 C 357.950 193, 353 193.338, 353 193.750 M 351.232 207 C 351.232 208.925, 351.438 209.713, 351.689 208.750 C 351.941 207.787, 351.941 206.213, 351.689 205.250 C 351.438 204.287, 351.232 205.075, 351.232 207 M 158.776 208.733 C 161.128 208.945, 164.728 208.942, 166.776 208.727 C 168.824 208.512, 166.900 208.339, 162.500 208.343 C 158.100 208.346, 156.424 208.522, 158.776 208.733 M 259.238 247.250 C 259.475 285.500, 259.475 285.500, 259.750 247.750 C 260.024 210, 260.024 210, 270.499 210 C 280.975 210, 280.975 210, 281.250 245.750 C 281.526 281.500, 281.526 281.500, 281.763 245.250 C 282 209, 282 209, 270.500 209 C 259 209, 259 209, 259.238 247.250 M 291.237 244.250 C 291.473 279.500, 291.473 279.500, 291.750 244.750 C 292.026 210, 292.026 210, 302.503 210 C 312.980 210, 312.980 210, 313.250 255.750 C 313.521 301.500, 313.521 301.500, 313.760 255.250 C 314 209, 314 209, 302.500 209 C 291 209, 291 209, 291.237 244.250 M 402.708 209.749 C 424.917 210.038, 424.917 210.038, 425.257 217.769 C 425.598 225.500, 425.598 225.500, 425.799 217.250 C 426 209, 426 209, 403.250 209.230 C 380.500 209.460, 380.500 209.460, 402.708 209.749 M 178 212.113 C 179.925 213.271, 182.287 214.914, 183.250 215.764 C 184.213 216.614, 185 217.018, 185 216.661 C 185 215.729, 176.910 209.999, 175.600 210.004 C 174.995 210.006, 176.075 210.955, 178 212.113 M 141.104 215.535 C 139.397 217.479, 138.014 219.616, 138.030 220.285 C 138.047 220.953, 138.557 220.600, 139.164 219.500 C 139.771 218.400, 141.417 216.262, 142.821 214.750 C 144.225 213.238, 145.112 212, 144.791 212 C 144.470 212, 142.811 213.591, 141.104 215.535 M 349.232 222 C 349.232 223.925, 349.438 224.713, 349.689 223.750 C 349.941 222.787, 349.941 221.213, 349.689 220.250 C 349.438 219.287, 349.232 220.075, 349.232 222 M 136.185 231.250 C 136 237, 136 237, 147 237 C 158 237, 158 237, 157.832 232.750 C 157.664 228.500, 157.664 228.500, 157.272 232.250 C 156.879 236, 156.879 236, 146.992 236 C 137.105 236, 137.105 236, 136.737 230.750 C 136.370 225.500, 136.370 225.500, 136.185 231.250 M 384 226.647 C 392.291 227.383, 403.004 227.441, 403.002 226.750 C 403.001 226.338, 397.938 226.076, 391.750 226.168 C 385.563 226.261, 382.075 226.476, 384 226.647 M 330.272 244 C 330.272 246.475, 330.467 247.488, 330.706 246.250 C 330.944 245.012, 330.944 242.988, 330.706 241.750 C 330.467 240.512, 330.272 241.525, 330.272 244 M 365.232 244 C 365.232 245.925, 365.438 246.713, 365.689 245.750 C 365.941 244.787, 365.941 243.213, 365.689 242.250 C 365.438 241.287, 365.232 242.075, 365.232 244 M 157.500 244.464 C 153.638 246.232, 155.434 246.258, 160 244.500 C 161.925 243.759, 162.825 243.138, 162 243.121 C 161.175 243.104, 159.150 243.708, 157.500 244.464 M 146.750 248.572 C 142.873 250.675, 143.312 251.401, 147.250 249.399 C 151.020 247.481, 151.687 246.985, 150.417 247.040 C 149.912 247.062, 148.262 247.751, 146.750 248.572 M 99.238 275.500 C 99.415 301.500, 99.415 301.500, 99.957 277 C 100.256 263.525, 100.176 251.825, 99.780 251 C 99.385 250.175, 99.140 261.200, 99.238 275.500 M 138.978 255.696 C 137.340 258.278, 136.018 261.091, 136.039 261.946 C 136.061 262.801, 136.727 262.007, 137.519 260.182 C 138.312 258.357, 139.900 255.545, 141.048 253.932 C 142.197 252.319, 142.871 251, 142.546 251 C 142.222 251, 140.616 253.113, 138.978 255.696 M 161.535 255.104 C 159.591 256.811, 158 258.566, 158 259.004 C 158 259.442, 159.688 258.158, 161.750 256.150 C 165.500 252.500, 165.500 252.500, 166.041 267.500 C 166.582 282.500, 166.582 282.500, 166.791 267.250 C 166.918 257.972, 166.622 252, 166.035 252 C 165.504 252, 163.479 253.397, 161.535 255.104 M 347.720 260.332 C 347.324 261.339, 347.014 262.914, 347.030 263.832 C 347.058 265.320, 347.173 265.308, 348.098 263.719 C 348.668 262.739, 348.978 261.164, 348.788 260.219 C 348.471 258.649, 348.378 258.659, 347.720 260.332 M 157.370 271 C 157.370 276.775, 157.535 279.137, 157.737 276.250 C 157.939 273.363, 157.939 268.637, 157.737 265.750 C 157.535 262.863, 157.370 265.225, 157.370 271 M 135.232 267 C 135.232 268.925, 135.438 269.712, 135.689 268.750 C 135.941 267.788, 135.941 266.212, 135.689 265.250 C 135.438 264.288, 135.232 265.075, 135.232 267 M 135.232 283 C 135.232 284.925, 135.438 285.712, 135.689 284.750 C 135.941 283.788, 135.941 282.212, 135.689 281.250 C 135.438 280.288, 135.232 281.075, 135.232 283 M 289.683 282.385 C 289.372 283.194, 287.854 284.046, 286.309 284.278 C 283.500 284.700, 283.500 284.700, 286.128 284.850 C 288.601 284.991, 291.897 282.563, 290.766 281.433 C 290.481 281.147, 289.993 281.576, 289.683 282.385 M 404.079 283.250 C 404.009 284.810, 405.135 285, 414.460 285 C 424.919 285, 424.919 285, 425.256 293.250 C 425.593 301.500, 425.593 301.500, 425.796 292.750 C 426 284, 426 284, 415.583 284 C 408.186 284, 405.020 283.638, 404.662 282.750 C 404.361 282.003, 404.126 282.205, 404.079 283.250 M 166.756 295.750 C 167.451 302.221, 168 302.405, 168 296.167 C 168 293.325, 167.605 291, 167.123 291 C 166.640 291, 166.475 293.137, 166.756 295.750 M 290.764 292.750 C 290.570 293.163, 290.704 295.300, 291.063 297.500 C 291.716 301.500, 291.716 301.500, 291.858 296.750 C 291.990 292.331, 291.613 290.951, 290.764 292.750 M 162.997 297.250 C 161.525 299.261, 161.283 299.960, 162.363 299.082 C 164.003 297.751, 166.483 294, 165.723 294 C 165.532 294, 164.305 295.462, 162.997 297.250" stroke="none" fill="#9466bc" fill-rule="evenodd"/><path d="M 198 247 C 198 301, 198 301, 208.500 301 C 219 301, 219 301, 219 247 C 219 193, 219 193, 208.500 193 C 198 193, 198 193, 198 247 M 229 247 C 229 301, 229 301, 239.500 301 C 250 301, 250 301, 250 247 C 250 193, 250 193, 239.500 193 C 229 193, 229 193, 229 247 M 78 247.500 C 78 301, 78 301, 88.500 301 C 99 301, 99 301, 99.030 275.250 C 99.047 260.894, 99.431 250.164, 99.897 251 C 100.357 251.825, 103.156 263.412, 106.117 276.749 C 111.500 300.997, 111.500 300.997, 122.250 300.999 C 128.162 300.999, 133 300.769, 133 300.488 C 133 300.206, 129.779 287.098, 125.843 271.359 C 118.687 242.744, 118.687 242.744, 124.365 219.122 C 127.488 206.130, 130.034 195.162, 130.022 194.750 C 130.010 194.338, 125.370 194, 119.711 194 C 109.423 194, 109.423 194, 105.066 213.250 C 102.670 223.838, 100.354 233.400, 99.918 234.500 C 99.483 235.600, 99.098 226.938, 99.063 215.250 C 99 194, 99 194, 88.500 194 C 78 194, 78 194, 78 247.500 M 322.464 195.250 C 322.685 195.938, 324.747 207.187, 327.047 220.250 C 331.228 243.999, 331.228 243.999, 325.600 271.750 C 322.505 287.012, 319.979 299.837, 319.986 300.250 C 319.994 300.663, 324.689 301, 330.421 301 C 340.841 301, 340.841 301, 341.410 298.250 C 341.723 296.738, 343.126 288.075, 344.528 279 C 345.929 269.925, 347.415 261.661, 347.829 260.636 C 348.302 259.464, 349.816 266.607, 351.911 279.886 C 355.242 301, 355.242 301, 365.621 301 C 372.465 301, 376 300.628, 376 299.907 C 376 299.305, 373.497 286.523, 370.437 271.502 C 364.875 244.190, 364.875 244.190, 369.005 221.345 C 371.277 208.780, 373.383 197.471, 373.685 196.214 C 374.234 193.930, 374.222 193.928, 363.868 194.214 C 353.500 194.500, 353.500 194.500, 351.322 210.500 C 350.124 219.300, 349.073 227.400, 348.986 228.500 C 348.693 232.206, 347.398 226.149, 344.970 209.728 C 342.645 194, 342.645 194, 332.354 194 C 324.574 194, 322.161 194.305, 322.464 195.250 M 149.293 210.593 C 141.468 213.467, 137.018 220.948, 137.006 231.250 C 137 236, 137 236, 147 236 C 157 236, 157 236, 157 233.047 C 157 228.067, 158.953 225, 162.125 225 C 165.978 225, 167.151 227.683, 166.795 235.682 C 166.500 242.325, 166.500 242.325, 158.500 245.012 C 146.189 249.147, 142.431 251.409, 139.466 256.468 C 135.830 262.672, 134.433 272.825, 135.879 282.542 C 137.926 296.305, 142.308 301.209, 152.694 301.359 C 158.734 301.446, 162.443 299.281, 164.942 294.208 C 167.145 289.735, 168 290.236, 168 296 C 168 301, 168 301, 178.555 301 C 189.109 301, 189.109 301, 188.805 262.750 C 188.500 224.500, 188.500 224.500, 186 220.041 C 184.406 217.198, 181.728 214.487, 178.611 212.561 C 174.121 209.787, 172.896 209.520, 163.611 209.294 C 156.451 209.120, 152.272 209.499, 149.293 210.593 M 260 247.841 C 260 288.355, 260.437 292.643, 265.074 297.578 C 268.162 300.866, 276.238 302.551, 281.769 301.062 C 285.046 300.180, 286.658 298.959, 288.764 295.766 C 291.500 291.616, 291.500 291.616, 291.805 296.308 C 292.110 301, 292.110 301, 302.555 301 C 313 301, 313 301, 313 255.500 C 313 210, 313 210, 302.547 210 C 292.094 210, 292.094 210, 291.797 245.848 C 291.481 284.009, 291.348 285.019, 286.628 284.985 C 281.401 284.947, 281.521 285.798, 281.214 246.537 C 280.929 210, 280.929 210, 270.464 210 C 260 210, 260 210, 260 247.841 M 381 218 C 381 226, 381 226, 392 226 C 398.050 226, 403 226.208, 403 226.461 C 403 226.715, 397.825 240.770, 391.500 257.695 C 381.330 284.907, 380 289.191, 380 294.733 C 380 301, 380 301, 402.500 301 C 425 301, 425 301, 425 293 C 425 285, 425 285, 414.500 285 C 408.725 285, 404 284.621, 404 284.158 C 404 283.695, 408.725 270.124, 414.500 254 C 424.218 226.867, 425 224.137, 425 217.342 C 425 210, 425 210, 403 210 C 381 210, 381 210, 381 218 M 161.235 255.421 C 157.500 258.842, 157.500 258.842, 157.158 269.456 C 156.884 277.962, 157.137 280.560, 158.431 282.535 C 160.398 285.536, 164.488 285.825, 165.965 283.066 C 167.334 280.507, 167.353 252, 165.985 252 C 165.427 252, 163.290 253.540, 161.235 255.421" stroke="none" fill="#5c1c9c" fill-rule="evenodd"/></svg>